<?xml version="1.0" encoding="utf-8"?>
<!DOCTYPE svg PUBLIC "-//W3C//DTD SVG 1.1//EN" "http://www.w3.org/Graphics/SVG/1.1/DTD/svg11.dtd">
<svg version="1.1" id="Layer_1" xmlns="http://www.w3.org/2000/svg" xmlns:xlink="http://www.w3.org/1999/xlink" x="0px" y="0px"
	 width="1024px" height="1024px" viewBox="-384 1153 1024 1024" enable-background="new -384 1153 1024 1024" xml:space="preserve">
<rect id="Background" x="-384" y="1153" fill="#231F20" width="1024" height="1024"/>
<path id="Letter_N" fill="#54C2BA" d="M492.138,1983.451l31.854-31.854c3.956-3.957,5.934-8.641,5.934-14.055
	c0-5.412-1.978-10.098-5.934-14.055L382.21,1781.709c-3.956-3.957-8.64-5.936-14.053-5.936s-10.098,1.979-14.053,5.936
	l-141.783,141.779c-3.956,3.957-5.933,8.643-5.933,14.055c0,5.414,1.977,10.098,5.933,14.055l31.854,31.854
	c3.955,3.955,8.64,5.936,14.054,5.936c5.413,0,10.098-1.98,14.053-5.936l95.875-95.875l95.875,95.875
	c3.956,3.955,8.64,5.936,14.054,5.936C483.498,1989.387,488.182,1987.406,492.138,1983.451z M608,1907.562
	c0,43.514-10.722,83.643-32.167,120.391s-50.54,65.842-87.286,87.287c-36.748,21.445-76.878,32.166-120.391,32.166
	s-83.644-10.721-120.39-32.166c-36.748-21.445-65.844-50.539-87.288-87.287c-21.444-36.748-32.167-76.877-32.167-120.391
	c0-43.512,10.722-83.643,32.167-120.391c21.444-36.747,50.54-65.842,87.288-87.286c36.746-21.444,76.876-32.167,120.39-32.167
	s83.644,10.723,120.391,32.167c36.746,21.444,65.842,50.539,87.286,87.286C597.278,1823.92,608,1864.051,608,1907.562z"/>
<path id="Letter_O" fill="#E5018C" d="M-31.896,1907.562c0,22.07-7.808,40.912-23.423,56.525
	c-15.614,15.617-34.457,23.424-56.525,23.424c-22.069,0-40.911-7.807-56.526-23.424c-15.615-15.613-23.422-34.455-23.422-56.525
	c0-22.068,7.808-40.91,23.422-56.525c15.615-15.615,34.457-23.424,56.526-23.424c22.068,0,40.911,7.809,56.525,23.424
	C-39.703,1866.652-31.896,1885.494-31.896,1907.562z M-111.844,1737.673c-30.813,0-59.232,7.601-85.257,22.798
	c-26.025,15.199-46.636,35.811-61.835,61.836c-15.199,26.023-22.797,54.443-22.797,85.256c0,30.814,7.599,59.232,22.797,85.258
	s35.81,46.635,61.835,61.834s54.444,22.799,85.257,22.799c30.813,0,59.232-7.6,85.257-22.799s46.637-35.809,61.835-61.834
	s22.797-54.443,22.797-85.258c0-30.812-7.599-59.232-22.797-85.256c-15.198-26.025-35.81-46.637-61.835-61.836
	C-52.612,1745.273-81.031,1737.673-111.844,1737.673z M128.001,1907.562c0,43.514-10.723,83.643-32.166,120.391
	c-21.445,36.748-50.542,65.842-87.288,87.287c-36.747,21.445-76.878,32.166-120.391,32.166c-43.514,0-83.644-10.721-120.391-32.166
	c-36.747-21.445-65.843-50.539-87.287-87.287c-21.444-36.748-32.167-76.877-32.167-120.391c0-43.512,10.723-83.643,32.167-120.391
	c21.443-36.746,50.54-65.842,87.287-87.286c36.747-21.444,76.877-32.167,120.391-32.167c43.513,0,83.644,10.723,120.391,32.167
	c36.746,21.444,65.843,50.54,87.288,87.286C117.278,1823.92,128.001,1864.051,128.001,1907.562z"/>
<path id="Letter_C" fill="#008BCE" d="M486.829,1482.84v34.039c0,10.41-3.8,19.676-11.399,27.795s-17.384,14.418-29.355,18.895
	c-11.972,4.477-24.256,7.859-36.852,10.149c-12.597,2.29-24.828,3.435-36.695,3.435c-42.681,0-78.334-14.469-106.961-43.408
	c-28.627-28.941-42.941-64.958-42.941-108.056c0-42.264,14.157-77.554,42.473-105.868c28.314-28.314,63.604-42.473,105.868-42.473
	c7.079,0,14.938,0.469,23.579,1.405c8.64,0.937,18.321,2.811,29.043,5.621c10.722,2.812,20.352,6.351,28.887,10.619
	c8.537,4.268,15.719,10.149,21.549,17.645c5.829,7.495,8.744,15.927,8.744,25.296v34.04c0,3.331-1.666,4.997-4.996,4.997h-36.851
	c-3.332,0-4.997-1.666-4.997-4.997v-21.86c0-8.953-6.819-15.979-20.456-21.08c-13.637-5.101-27.95-7.651-42.94-7.651
	c-29.148,0-52.935,9.525-71.36,28.575c-18.425,19.049-27.638,43.773-27.638,74.17c0,31.439,9.524,57.411,28.575,77.918
	c19.05,20.508,43.357,30.762,72.922,30.762c14.157,0,28.523-2.498,43.096-7.495c14.574-4.997,21.862-11.867,21.862-20.612v-21.859
	c0-1.458,0.468-2.655,1.405-3.592c0.937-0.938,2.03-1.404,3.278-1.404h37.164c1.249,0,2.395,0.467,3.435,1.404
	C486.308,1480.185,486.829,1481.382,486.829,1482.84z M367.531,1227.381c-27.066,0-52.934,5.309-77.605,15.927
	c-24.672,10.618-45.908,24.827-63.709,42.628c-17.801,17.802-32.01,39.037-42.628,63.709c-10.618,24.672-15.927,50.54-15.927,77.605
	c0,27.066,5.309,52.935,15.927,77.605c10.619,24.672,24.828,45.908,42.628,63.709s39.037,32.011,63.709,42.629
	c24.671,10.618,50.539,15.928,77.605,15.928s52.935-5.31,77.606-15.928c24.672-10.618,45.908-24.828,63.709-42.629
	c17.801-17.801,32.01-39.037,42.628-63.709c10.618-24.671,15.927-50.539,15.927-77.605c0-27.065-5.309-52.934-15.927-77.605
	s-24.828-45.907-42.628-63.709c-17.801-17.801-39.037-32.01-63.709-42.628C420.467,1232.689,394.597,1227.381,367.531,1227.381z
	 M607.376,1427.25c0,43.514-10.722,83.645-32.167,120.391c-21.445,36.747-50.54,65.843-87.287,87.287
	c-36.748,21.443-76.877,32.166-120.391,32.166c-43.513,0-83.643-10.723-120.39-32.166c-36.748-21.444-65.843-50.54-87.287-87.287
	c-21.445-36.746-32.167-76.877-32.167-120.391c0-43.512,10.722-83.643,32.167-120.391c21.444-36.746,50.539-65.842,87.287-87.287
	c36.747-21.443,76.876-32.166,120.39-32.166c43.514,0,83.643,10.723,120.391,32.166c36.747,21.445,65.842,50.541,87.287,87.287
	C596.654,1343.607,607.376,1383.738,607.376,1427.25z"/>
<path id="Letter_I" fill="#FFD105" d="M-32.208,1577.465v-49.967c0-2.915-0.938-5.309-2.811-7.184
	c-1.874-1.873-4.268-2.811-7.182-2.811h-29.981v-159.896c0-2.915-0.937-5.31-2.811-7.183c-1.874-1.874-4.268-2.811-7.183-2.811
	h-99.935c-2.915,0-5.309,0.937-7.183,2.811c-1.874,1.873-2.811,4.268-2.811,7.183v49.968c0,2.914,0.937,5.309,2.811,7.182
	c1.874,1.875,4.268,2.812,7.183,2.812h29.979v99.935h-29.979c-2.915,0-5.309,0.938-7.183,2.811
	c-1.874,1.875-2.811,4.269-2.811,7.184v49.967c0,2.915,0.937,5.31,2.811,7.183c1.874,1.875,4.268,2.812,7.183,2.812h139.909
	c2.914,0,5.308-0.937,7.182-2.812C-33.145,1582.774-32.208,1580.38-32.208,1577.465z M-72.182,1297.646v-49.967
	c0-2.914-0.937-5.309-2.811-7.183c-1.874-1.874-4.268-2.812-7.183-2.812h-59.961c-2.914,0-5.309,0.938-7.183,2.812
	c-1.873,1.874-2.811,4.269-2.811,7.183v49.967c0,2.916,0.938,5.311,2.811,7.184c1.874,1.873,4.269,2.811,7.183,2.811h59.961
	c2.915,0,5.31-0.938,7.183-2.811C-73.118,1302.957-72.182,1300.562-72.182,1297.646z M127.688,1427.562
	c0,43.514-10.722,83.645-32.167,120.391c-21.445,36.747-50.54,65.842-87.288,87.287c-36.747,21.444-76.876,32.166-120.39,32.166
	c-43.514,0-83.644-10.722-120.391-32.166c-36.747-21.445-65.842-50.54-87.287-87.287c-21.444-36.746-32.166-76.877-32.166-120.391
	s10.722-83.643,32.166-120.391c21.445-36.747,50.541-65.842,87.287-87.287c36.748-21.444,76.877-32.166,120.391-32.166
	c43.514,0,83.643,10.722,120.39,32.166c36.748,21.445,65.843,50.54,87.288,87.287
	C116.966,1343.92,127.688,1384.049,127.688,1427.562z"/>
</svg>
