<svg xmlns="http://www.w3.org/2000/svg" width="1024" height="1024" viewBox="-384 1153 1024 1024"><rect x="-384" y="1153" fill="#303030" width="1024" height="1024"/><path fill="#54C2BA" d="M492.138 1983.45l31.854-31.853c3.956-3.957 5.934-8.64 5.934-14.055 0-5.412-1.978-10.098-5.934-14.055L382.21 1781.71c-3.956-3.958-8.64-5.937-14.053-5.937s-10.098 1.98-14.053 5.936L212.32 1923.487c-3.955 3.957-5.932 8.643-5.932 14.055 0 5.414 1.977 10.098 5.933 14.055l31.855 31.854c3.955 3.955 8.64 5.936 14.054 5.936 5.412 0 10.097-1.98 14.052-5.936l95.875-95.875 95.875 95.875c3.956 3.955 8.64 5.936 14.054 5.936 5.412 0 10.096-1.982 14.052-5.937zM608 1907.563c0 43.514-10.722 83.643-32.167 120.39s-50.54 65.843-87.286 87.288c-36.748 21.445-76.878 32.166-120.39 32.166s-83.645-10.72-120.39-32.166c-36.75-21.445-65.845-50.54-87.29-87.287-21.443-36.748-32.166-76.877-32.166-120.39 0-43.513 10.723-83.644 32.168-120.392 21.444-36.746 50.54-65.84 87.288-87.285 36.746-21.444 76.876-32.167 120.39-32.167s83.644 10.723 120.39 32.167c36.747 21.444 65.843 50.54 87.287 87.286 21.445 36.75 32.167 76.88 32.167 120.392z"/><path fill="#E5018C" d="M-31.896 1907.562c0 22.07-7.808 40.912-23.423 56.525-15.613 15.617-34.456 23.424-56.524 23.424-22.07 0-40.91-7.806-56.526-23.423-15.615-15.613-23.422-34.455-23.422-56.525 0-22.068 7.808-40.91 23.422-56.525 15.615-15.615 34.457-23.424 56.526-23.424 22.068 0 40.91 7.81 56.525 23.424 15.617 15.615 23.424 34.457 23.424 56.525zm-79.948-169.89c-30.813 0-59.232 7.602-85.257 22.8-26.026 15.198-46.637 35.81-61.836 61.835-15.2 26.023-22.797 54.443-22.797 85.256 0 30.814 7.6 59.232 22.797 85.258s35.81 46.636 61.835 61.835 54.443 22.8 85.256 22.8c30.813 0 59.232-7.6 85.257-22.8s46.637-35.81 61.835-61.834 22.797-54.442 22.797-85.257c0-30.812-7.6-59.232-22.797-85.256-15.198-26.025-35.81-46.637-61.835-61.836-26.025-15.197-54.444-22.797-85.257-22.797zM128 1907.563c0 43.514-10.722 83.643-32.165 120.39-21.445 36.75-50.542 65.843-87.288 87.288-36.747 21.445-76.878 32.166-120.39 32.166-43.515 0-83.645-10.72-120.392-32.166-36.747-21.445-65.843-50.54-87.287-87.287-21.444-36.748-32.167-76.877-32.167-120.39 0-43.513 10.724-83.644 32.168-120.392 21.443-36.745 50.54-65.84 87.287-87.285 36.747-21.444 76.877-32.167 120.39-32.167 43.514 0 83.645 10.723 120.392 32.167 36.746 21.444 65.843 50.54 87.288 87.286 21.443 36.75 32.166 76.88 32.166 120.392z"/><path fill="#008BCE" d="M486.83 1482.84v34.04c0 10.41-3.8 19.675-11.4 27.794s-17.384 14.418-29.355 18.895c-11.972 4.476-24.256 7.858-36.852 10.148-12.597 2.29-24.828 3.435-36.695 3.435-42.68 0-78.334-14.47-106.96-43.408-28.628-28.94-42.942-64.958-42.942-108.056 0-42.265 14.157-77.555 42.473-105.87 28.313-28.313 63.603-42.472 105.867-42.472 7.08 0 14.938.47 23.58 1.405 8.64.937 18.32 2.81 29.042 5.62 10.72 2.813 20.35 6.352 28.886 10.62 8.537 4.268 15.72 10.15 21.55 17.645 5.828 7.495 8.743 15.927 8.743 25.296v34.04c0 3.33-1.667 4.997-4.997 4.997h-36.85c-3.333 0-4.998-1.665-4.998-4.996v-21.86c0-8.953-6.82-15.98-20.456-21.08-13.638-5.1-27.95-7.65-42.94-7.65-29.15 0-52.936 9.524-71.36 28.574-18.426 19.05-27.64 43.773-27.64 74.17 0 31.44 9.525 57.41 28.576 77.918 19.05 20.508 43.357 30.762 72.922 30.762 14.157 0 28.523-2.498 43.096-7.495 14.574-4.997 21.862-11.867 21.862-20.612v-21.858c0-1.458.468-2.655 1.405-3.592.938-.938 2.03-1.404 3.28-1.404h37.163c1.25 0 2.395.467 3.435 1.404 1.04.935 1.56 2.132 1.56 3.59zm-119.3-255.46c-27.065 0-52.933 5.31-77.604 15.928-24.672 10.618-45.908 24.827-63.71 42.628-17.8 17.802-32.01 39.037-42.627 63.71-10.62 24.67-15.928 50.54-15.928 77.604 0 27.066 5.31 52.935 15.927 77.605 10.618 24.672 24.827 45.908 42.627 63.71s39.037 32.01 63.71 42.628c24.67 10.618 50.538 15.928 77.604 15.928s52.936-5.31 77.607-15.927c24.672-10.618 45.908-24.828 63.71-42.63 17.8-17.8 32.01-39.036 42.627-63.708 10.618-24.67 15.927-50.54 15.927-77.605 0-27.065-5.308-52.934-15.926-77.605s-24.828-45.907-42.628-63.71c-17.8-17.8-39.037-32.01-63.71-42.627-24.67-10.62-50.54-15.927-77.605-15.927zm239.846 199.87c0 43.514-10.722 83.645-32.167 120.39-21.446 36.748-50.54 65.844-87.288 87.288-36.748 21.443-76.877 32.166-120.39 32.166-43.514 0-83.644-10.723-120.39-32.166-36.75-21.444-65.844-50.54-87.288-87.287-21.445-36.745-32.167-76.876-32.167-120.39 0-43.512 10.722-83.643 32.167-120.39 21.444-36.747 50.54-65.843 87.287-87.288 36.748-21.443 76.877-32.166 120.39-32.166 43.515 0 83.644 10.723 120.392 32.166 36.747 21.445 65.842 50.54 87.287 87.287 21.444 36.747 32.166 76.878 32.166 120.39z"/><path fill="#FFD105" d="M-32.208 1577.465v-49.967c0-2.915-.938-5.31-2.81-7.184-1.875-1.873-4.27-2.81-7.183-2.81h-29.982v-159.897c0-2.915-.937-5.31-2.81-7.183-1.875-1.874-4.27-2.81-7.184-2.81h-99.935c-2.916 0-5.31.936-7.184 2.81-1.874 1.873-2.81 4.268-2.81 7.183v49.968c0 2.914.936 5.31 2.81 7.182 1.874 1.875 4.268 2.812 7.183 2.812h29.978v99.934h-29.98c-2.914 0-5.308.938-7.182 2.81-1.874 1.876-2.81 4.27-2.81 7.185v49.966c0 2.915.936 5.31 2.81 7.183 1.874 1.874 4.268 2.81 7.183 2.81h139.908c2.914 0 5.308-.936 7.182-2.81 1.875-1.876 2.812-4.27 2.812-7.185zm-39.974-279.82v-49.966c0-2.915-.937-5.31-2.81-7.184-1.875-1.874-4.27-2.812-7.184-2.812h-59.96c-2.915 0-5.31.938-7.184 2.812-1.873 1.874-2.81 4.27-2.81 7.183v49.966c0 2.916.937 5.31 2.81 7.184 1.874 1.873 4.27 2.81 7.183 2.81h59.96c2.916 0 5.31-.937 7.184-2.81 1.875-1.873 2.81-4.268 2.81-7.184zm199.87 129.917c0 43.514-10.722 83.645-32.167 120.39-21.444 36.748-50.54 65.843-87.287 87.288-36.747 21.444-76.876 32.166-120.39 32.166-43.514 0-83.644-10.722-120.39-32.166-36.748-21.445-65.843-50.54-87.288-87.287-21.444-36.746-32.166-76.877-32.166-120.39s10.72-83.644 32.165-120.392c21.445-36.746 50.54-65.84 87.287-87.286 36.748-21.444 76.877-32.166 120.39-32.166 43.515 0 83.644 10.722 120.39 32.166 36.75 21.445 65.844 50.54 87.29 87.287 21.444 36.75 32.166 76.88 32.166 120.392z"/></svg>