<svg xmlns="http://www.w3.org/2000/svg" viewBox="0 0 1024 1024" width="1024" height="1024">
  <path d="M876.1 830.4l31.9-31.9c4-4 5.9-8.6 5.9-14.1 0-5.4-2-10.1-5.9-14.1L766.2 628.7c-4-4-8.6-5.9-14.1-5.9s-10.1 2-14.1 5.9L596.3 770.5c-4 4-5.9 8.6-5.9 14.1 0 5.4 2 10.1 5.9 14.1l31.9 31.9c4 4 8.6 5.9 14.1 5.9 5.4 0 10.1-2 14.1-5.9l95.9-95.9 95.9 95.9c4 4 8.6 5.9 14.1 5.9 5.2-.1 9.9-2.1 13.8-6.1zM992 754.6c0 43.5-10.7 83.6-32.2 120.4-21.4 36.7-50.5 65.8-87.3 87.3-36.7 21.4-76.9 32.2-120.4 32.2s-83.6-10.7-120.4-32.2c-36.8-21.4-65.8-50.5-87.3-87.3-21.4-36.7-32.2-76.9-32.2-120.4s10.7-83.6 32.2-120.4c21.4-36.7 50.5-65.8 87.3-87.3 36.7-21.4 76.9-32.2 120.4-32.2s83.6 10.7 120.4 32.2c36.7 21.4 65.8 50.5 87.3 87.3 21.5 36.7 32.2 76.9 32.2 120.4z" fill="#54c2ba"/>
  <path d="M352.1 754.6c0 22.1-7.8 40.9-23.4 56.5-15.6 15.6-34.5 23.4-56.5 23.4-22.1 0-40.9-7.8-56.5-23.4-15.6-15.6-23.4-34.5-23.4-56.5 0-22.1 7.8-40.9 23.4-56.5 15.6-15.6 34.5-23.4 56.5-23.4 22.1 0 40.9 7.8 56.5 23.4 15.6 15.6 23.4 34.4 23.4 56.5zm-79.9-169.9c-30.8 0-59.2 7.6-85.3 22.8-26 15.2-46.6 35.8-61.8 61.8-15.2 26-22.8 54.4-22.8 85.3 0 30.8 7.6 59.2 22.8 85.3s35.8 46.6 61.8 61.8 54.4 22.8 85.3 22.8 59.2-7.6 85.3-22.8 46.6-35.8 61.8-61.8 22.8-54.4 22.8-85.3c0-30.8-7.6-59.2-22.8-85.3-15.2-26-35.8-46.6-61.8-61.8-26.1-15.2-54.5-22.8-85.3-22.8zM512 754.6c0 43.5-10.7 83.6-32.2 120.4-21.4 36.8-50.5 65.8-87.3 87.3-36.7 21.4-76.9 32.2-120.4 32.2s-83.6-10.7-120.4-32.2C115 940.8 85.9 911.7 64.5 875 43 838.2 32.3 798.1 32.3 754.6S43 671 64.5 634.2c21.4-36.7 50.5-65.8 87.3-87.3 36.7-21.4 76.9-32.2 120.4-32.2s83.6 10.7 120.4 32.2c36.7 21.4 65.8 50.5 87.3 87.3 21.4 36.7 32.1 76.9 32.1 120.4z" fill="#e5018c"/>
  <path d="M351.8 424.5v-50c0-2.9-.9-5.3-2.8-7.2-1.9-1.9-4.3-2.8-7.2-2.8h-30V204.6c0-2.9-.9-5.3-2.8-7.2-1.9-1.9-4.3-2.8-7.2-2.8h-99.9c-2.9 0-5.3.9-7.2 2.8-1.9 1.9-2.8 4.3-2.8 7.2v50c0 2.9.9 5.3 2.8 7.2 1.9 1.9 4.3 2.8 7.2 2.8h30v99.9h-30c-2.9 0-5.3.9-7.2 2.8-1.9 1.9-2.8 4.3-2.8 7.2v50c0 2.9.9 5.3 2.8 7.2 1.9 1.9 4.3 2.8 7.2 2.8h139.9c2.9 0 5.3-.9 7.2-2.8 1.9-1.9 2.8-4.3 2.8-7.2zm-40-279.9v-50c0-2.9-.9-5.3-2.8-7.2-1.9-1.9-4.3-2.8-7.2-2.8h-60c-2.9 0-5.3.9-7.2 2.8-1.9 1.9-2.8 4.3-2.8 7.2v50c0 2.9.9 5.3 2.8 7.2 1.9 1.9 4.3 2.8 7.2 2.8h60c2.9 0 5.3-.9 7.2-2.8 1.9-1.8 2.8-4.2 2.8-7.2zm199.9 130c0 43.5-10.7 83.6-32.2 120.4-21.4 36.7-50.5 65.8-87.3 87.3-36.7 21.4-76.9 32.2-120.4 32.2s-83.6-10.7-120.4-32.2c-36.7-21.4-65.8-50.5-87.3-87.3C42.7 358.2 32 318.1 32 274.6S42.7 191 64.2 154.2c21.4-36.7 50.5-65.8 87.3-87.3 36.7-21.4 76.9-32.2 120.4-32.2s83.6 10.7 120.4 32.2c36.8 21.4 65.8 50.5 87.3 87.3 21.4 36.7 32.1 76.9 32.1 120.4z" fill="#ffd105"/>
  <path d="M751.5 34.7c-132.5 0-240 107.5-240 240s107.5 240 240 240 240-107.5 240-240-107.4-240-240-240zm113.4 335.6c-1.5 1.8-38.5 44.3-106.3 44.3-82 0-139.8-61.2-139.8-140.9 0-78.7 60-138.8 139.1-138.8 64.8 0 98.7 36.1 100.1 37.6 3.6 3.9 4.1 9.7 1.2 14.2l-21.7 33.5c-3.9 6.1-12.4 7.1-17.6 2.2-.2-.2-25.7-23.1-59.9-23.1-44.6 0-71.5 32.5-71.5 73.6 0 38.3 24.7 77.1 71.9 77.1 37.4 0 63.2-27.4 63.4-27.7 5-5.4 13.6-4.9 17.9 1l23.8 32.5c3.1 4.4 2.9 10.4-.6 14.5z" fill="#008bce"/>
</svg>